<svg width="32" height="40" viewBox="0 0 32 40" fill="none" xmlns="http://www.w3.org/2000/svg">
<rect y="7.69995" width="31.9" height="31.9" rx="4.4" fill="#EBEAEA"/>
<mask id="path-2-outside-1_84_428" maskUnits="userSpaceOnUse" x="5.40039" y="3" width="21" height="31" fill="black">
<rect fill="white" x="5.40039" y="3" width="21" height="31"/>
<path d="M24.9924 23.4068C24.9924 24.7004 24.768 25.9016 24.3192 27.0104C23.8968 28.1192 23.2896 29.0828 22.4976 29.9012C21.7056 30.7196 20.742 31.3664 19.6068 31.8416C18.498 32.3168 17.2704 32.5544 15.924 32.5544C14.5512 32.5544 13.284 32.3432 12.1224 31.9208C10.9872 31.472 9.99719 30.812 9.15239 29.9408C8.30759 29.0696 7.64759 27.974 7.17239 26.654C6.69719 25.334 6.45959 23.8028 6.45959 22.0604C6.45959 19.4468 6.82919 17.084 7.56839 14.972C8.33399 12.86 9.35039 11.0252 10.6176 9.4676C11.9112 7.8836 13.4028 6.6164 15.0924 5.666C16.8084 4.6892 18.6168 4.0424 20.5176 3.7256L21.666 7.8044C20.346 8.0156 19.1316 8.4248 18.0228 9.032C16.914 9.6392 15.924 10.3652 15.0528 11.21C14.208 12.0548 13.482 13.0052 12.8748 14.0612C12.294 15.0908 11.8848 16.16 11.6472 17.2688C12.1752 16.6088 12.8616 16.0544 13.7064 15.6056C14.5512 15.1304 15.6072 14.8928 16.8744 14.8928C18.0624 14.8928 19.158 15.0776 20.1612 15.4472C21.1644 15.8168 22.0224 16.3712 22.7352 17.1104C23.448 17.8232 24.0024 18.7076 24.3984 19.7636C24.7944 20.8196 24.9924 22.034 24.9924 23.4068ZM20.0028 23.684C20.0028 20.7272 18.5508 19.2488 15.6468 19.2488C14.5908 19.2488 13.6932 19.4864 12.954 19.9616C12.2412 20.4368 11.7396 20.9912 11.4492 21.6248C11.3964 21.9152 11.37 22.166 11.37 22.3772C11.37 22.5884 11.37 22.7996 11.37 23.0108C11.37 23.6444 11.4624 24.278 11.6472 24.9116C11.832 25.5188 12.096 26.0732 12.4392 26.5748C12.8088 27.05 13.2708 27.446 13.8252 27.7628C14.3796 28.0532 15.0396 28.1984 15.8052 28.1984C17.046 28.1984 18.0492 27.776 18.8148 26.9312C19.6068 26.0864 20.0028 25.004 20.0028 23.684Z"/>
</mask>
<path d="M24.9924 23.4068C24.9924 24.7004 24.768 25.9016 24.3192 27.0104C23.8968 28.1192 23.2896 29.0828 22.4976 29.9012C21.7056 30.7196 20.742 31.3664 19.6068 31.8416C18.498 32.3168 17.2704 32.5544 15.924 32.5544C14.5512 32.5544 13.284 32.3432 12.1224 31.9208C10.9872 31.472 9.99719 30.812 9.15239 29.9408C8.30759 29.0696 7.64759 27.974 7.17239 26.654C6.69719 25.334 6.45959 23.8028 6.45959 22.0604C6.45959 19.4468 6.82919 17.084 7.56839 14.972C8.33399 12.86 9.35039 11.0252 10.6176 9.4676C11.9112 7.8836 13.4028 6.6164 15.0924 5.666C16.8084 4.6892 18.6168 4.0424 20.5176 3.7256L21.666 7.8044C20.346 8.0156 19.1316 8.4248 18.0228 9.032C16.914 9.6392 15.924 10.3652 15.0528 11.21C14.208 12.0548 13.482 13.0052 12.8748 14.0612C12.294 15.0908 11.8848 16.16 11.6472 17.2688C12.1752 16.6088 12.8616 16.0544 13.7064 15.6056C14.5512 15.1304 15.6072 14.8928 16.8744 14.8928C18.0624 14.8928 19.158 15.0776 20.1612 15.4472C21.1644 15.8168 22.0224 16.3712 22.7352 17.1104C23.448 17.8232 24.0024 18.7076 24.3984 19.7636C24.7944 20.8196 24.9924 22.034 24.9924 23.4068ZM20.0028 23.684C20.0028 20.7272 18.5508 19.2488 15.6468 19.2488C14.5908 19.2488 13.6932 19.4864 12.954 19.9616C12.2412 20.4368 11.7396 20.9912 11.4492 21.6248C11.3964 21.9152 11.37 22.166 11.37 22.3772C11.37 22.5884 11.37 22.7996 11.37 23.0108C11.37 23.6444 11.4624 24.278 11.6472 24.9116C11.832 25.5188 12.096 26.0732 12.4392 26.5748C12.8088 27.05 13.2708 27.446 13.8252 27.7628C14.3796 28.0532 15.0396 28.1984 15.8052 28.1984C17.046 28.1984 18.0492 27.776 18.8148 26.9312C19.6068 26.0864 20.0028 25.004 20.0028 23.684Z" fill="#FFA300"/>
<path d="M24.3192 27.0104L23.8093 26.804L23.8052 26.8146L24.3192 27.0104ZM22.4976 29.9012L22.8928 30.2837L22.4976 29.9012ZM19.6068 31.8416L19.3944 31.3342L19.3901 31.3361L19.6068 31.8416ZM12.1224 31.9208L11.9202 32.4323L11.9273 32.4351L11.9344 32.4377L12.1224 31.9208ZM9.15239 29.9408L8.75755 30.3237L9.15239 29.9408ZM7.17239 26.654L6.6549 26.8403L7.17239 26.654ZM7.56839 14.972L7.05128 14.7845L7.04927 14.7903L7.56839 14.972ZM10.6176 9.4676L10.1916 9.1197L10.1909 9.1205L10.6176 9.4676ZM15.0924 5.666L15.362 6.14537L15.3645 6.14398L15.0924 5.666ZM20.5176 3.7256L21.047 3.57654L20.9134 3.10204L20.4272 3.18308L20.5176 3.7256ZM21.666 7.8044L21.7529 8.34749L22.3628 8.2499L22.1954 7.65534L21.666 7.8044ZM15.0528 11.21L14.6699 10.8151L14.6639 10.8211L15.0528 11.21ZM12.8748 14.0612L12.398 13.787L12.3958 13.791L12.8748 14.0612ZM11.6472 17.2688L11.1094 17.1536L12.0767 17.6124L11.6472 17.2688ZM13.7064 15.6056L13.9645 16.0915L13.976 16.085L13.7064 15.6056ZM20.1612 15.4472L20.3513 14.9311L20.1612 15.4472ZM22.7352 17.1104L22.3392 17.4922L22.3463 17.4993L22.7352 17.1104ZM24.3984 19.7636L23.8834 19.9567L24.3984 19.7636ZM12.954 19.9616L12.6565 19.4989L12.6489 19.504L12.954 19.9616ZM11.4492 21.6248L10.9492 21.3956L10.9204 21.4584L10.9081 21.5264L11.4492 21.6248ZM11.6472 24.9116L11.1192 25.0656L11.121 25.0717L11.6472 24.9116ZM12.4392 26.5748L11.9853 26.8854L11.9947 26.8992L12.005 26.9125L12.4392 26.5748ZM13.8252 27.7628L13.5523 28.2403L13.5611 28.2453L13.57 28.25L13.8252 27.7628ZM18.8148 26.9312L18.4135 26.555L18.4072 26.5619L18.8148 26.9312ZM24.4424 23.4068C24.4424 24.6355 24.2295 25.766 23.8094 26.804L24.829 27.2168C25.3064 26.0372 25.5424 24.7653 25.5424 23.4068H24.4424ZM23.8052 26.8146C23.4082 27.8567 22.8404 28.7561 22.1024 29.5187L22.8928 30.2837C23.7388 29.4095 24.3854 28.3817 24.8332 27.2062L23.8052 26.8146ZM22.1024 29.5187C21.3663 30.2793 20.4664 30.8855 19.3944 31.3343L19.8192 32.3489C21.0176 31.8473 22.0449 31.1599 22.8928 30.2837L22.1024 29.5187ZM19.3901 31.3361C18.3573 31.7787 17.2046 32.0044 15.924 32.0044V33.1044C17.3362 33.1044 18.6386 32.8549 19.8234 32.3471L19.3901 31.3361ZM15.924 32.0044C14.6082 32.0044 13.4054 31.8021 12.3103 31.4039L11.9344 32.4377C13.1626 32.8843 14.4941 33.1044 15.924 33.1044V32.0044ZM12.3246 31.4093C11.2616 30.9891 10.3374 30.3727 9.54724 29.5579L8.75755 30.3237C9.65703 31.2513 10.7128 31.9549 11.9202 32.4323L12.3246 31.4093ZM9.54724 29.5579C8.76466 28.7509 8.14273 27.7256 7.68988 26.4677L6.6549 26.8403C7.15245 28.2224 7.85052 29.3883 8.75755 30.3237L9.54724 29.5579ZM7.68988 26.4677C7.24068 25.2199 7.00959 23.7541 7.00959 22.0604H5.90959C5.90959 23.8515 6.1537 25.4481 6.6549 26.8403L7.68988 26.4677ZM7.00959 22.0604C7.00959 19.4985 7.37186 17.1984 8.08751 15.1537L7.04927 14.7903C6.28652 16.9696 5.90959 19.3951 5.90959 22.0604H7.00959ZM8.08547 15.1594C8.83255 13.0985 9.82023 11.3192 11.0442 9.8147L10.1909 9.1205C8.88055 10.7312 7.83544 12.6215 7.05132 14.7846L8.08547 15.1594ZM11.0436 9.81549C12.2962 8.28173 13.7355 7.06026 15.362 6.14536L14.8227 5.18663C13.07 6.17253 11.5262 7.48546 10.1916 9.1197L11.0436 9.81549ZM15.3645 6.14398C17.0256 5.19842 18.7727 4.574 20.608 4.26811L20.4272 3.18308C18.4609 3.51079 16.5912 4.17998 14.8203 5.18801L15.3645 6.14398ZM19.9882 3.87466L21.1366 7.95346L22.1954 7.65534L21.047 3.57654L19.9882 3.87466ZM21.5791 7.26131C20.2006 7.48187 18.9257 7.91047 17.7586 8.54959L18.287 9.5144C19.3375 8.93912 20.4914 8.54932 21.7529 8.34749L21.5791 7.26131ZM17.7586 8.54959C16.6083 9.17952 15.578 9.93456 14.6699 10.8152L15.4357 11.6048C16.27 10.7958 17.2197 10.0989 18.287 9.5144L17.7586 8.54959ZM14.6639 10.8211C13.7842 11.7008 13.0288 12.6899 12.398 13.787L13.3516 14.3354C13.9351 13.3205 14.6318 12.4088 15.4417 11.5989L14.6639 10.8211ZM12.3958 13.791C11.7888 14.8669 11.3591 15.9881 11.1094 17.1536L12.185 17.384C12.4105 16.3318 12.7992 15.3147 13.3538 14.3314L12.3958 13.791ZM12.0767 17.6124C12.552 17.0182 13.1772 16.5096 13.9644 16.0913L13.4484 15.1199C12.546 15.5992 11.7984 16.1994 11.2177 16.9252L12.0767 17.6124ZM13.976 16.085C14.717 15.6682 15.6735 15.4428 16.8744 15.4428V14.3428C15.5409 14.3428 14.3854 14.5926 13.4367 15.1262L13.976 16.085ZM16.8744 15.4428C18.0047 15.4428 19.0351 15.6185 19.9711 15.9633L20.3513 14.9311C19.2809 14.5367 18.1201 14.3428 16.8744 14.3428V15.4428ZM19.9711 15.9633C20.8997 16.3054 21.6865 16.8152 22.3393 17.4922L23.1311 16.7286C22.3583 15.9272 21.4291 15.3282 20.3513 14.9311L19.9711 15.9633ZM22.3463 17.4993C22.9973 18.1503 23.5117 18.9655 23.8834 19.9567L24.9134 19.5705C24.4931 18.4497 23.8987 17.4961 23.1241 16.7215L22.3463 17.4993ZM23.8834 19.9567C24.2518 20.9392 24.4424 22.0861 24.4424 23.4068H25.5424C25.5424 21.9819 25.337 20.7 24.9134 19.5705L23.8834 19.9567ZM20.5528 23.684C20.5528 22.1233 20.1695 20.8512 19.3062 19.9722C18.441 19.0913 17.1861 18.6988 15.6468 18.6988V19.7988C17.0115 19.7988 17.9345 20.1455 18.5214 20.743C19.1101 21.3423 19.4528 22.2879 19.4528 23.684H20.5528ZM15.6468 18.6988C14.5068 18.6988 13.501 18.9561 12.6566 19.499L13.2514 20.4242C13.8854 20.0167 14.6748 19.7988 15.6468 19.7988V18.6988ZM12.6489 19.504C11.8706 20.0228 11.2909 20.6501 10.9492 21.3956L11.9492 21.854C12.1883 21.3323 12.6117 20.8508 13.2591 20.4192L12.6489 19.504ZM10.9081 21.5264C10.8515 21.8375 10.82 22.1229 10.82 22.3772H11.92C11.92 22.2091 11.9413 21.9928 11.9903 21.7232L10.9081 21.5264ZM10.82 22.3772C10.82 22.3776 10.82 22.378 10.82 22.3784C10.82 22.3788 10.82 22.3793 10.82 22.3797C10.82 22.3801 10.82 22.3805 10.82 22.3809C10.82 22.3813 10.82 22.3817 10.82 22.3821C10.82 22.3826 10.82 22.383 10.82 22.3834C10.82 22.3838 10.82 22.3842 10.82 22.3846C10.82 22.385 10.82 22.3854 10.82 22.3859C10.82 22.3863 10.82 22.3867 10.82 22.3871C10.82 22.3875 10.82 22.3879 10.82 22.3883C10.82 22.3887 10.82 22.3892 10.82 22.3896C10.82 22.39 10.82 22.3904 10.82 22.3908C10.82 22.3912 10.82 22.3916 10.82 22.392C10.82 22.3925 10.82 22.3929 10.82 22.3933C10.82 22.3937 10.82 22.3941 10.82 22.3945C10.82 22.3949 10.82 22.3953 10.82 22.3958C10.82 22.3962 10.82 22.3966 10.82 22.397C10.82 22.3974 10.82 22.3978 10.82 22.3982C10.82 22.3986 10.82 22.3991 10.82 22.3995C10.82 22.3999 10.82 22.4003 10.82 22.4007C10.82 22.4011 10.82 22.4015 10.82 22.4019C10.82 22.4024 10.82 22.4028 10.82 22.4032C10.82 22.4036 10.82 22.404 10.82 22.4044C10.82 22.4048 10.82 22.4052 10.82 22.4057C10.82 22.4061 10.82 22.4065 10.82 22.4069C10.82 22.4073 10.82 22.4077 10.82 22.4081C10.82 22.4085 10.82 22.409 10.82 22.4094C10.82 22.4098 10.82 22.4102 10.82 22.4106C10.82 22.411 10.82 22.4114 10.82 22.4118C10.82 22.4123 10.82 22.4127 10.82 22.4131C10.82 22.4135 10.82 22.4139 10.82 22.4143C10.82 22.4147 10.82 22.4151 10.82 22.4156C10.82 22.416 10.82 22.4164 10.82 22.4168C10.82 22.4172 10.82 22.4176 10.82 22.418C10.82 22.4184 10.82 22.4189 10.82 22.4193C10.82 22.4197 10.82 22.4201 10.82 22.4205C10.82 22.4209 10.82 22.4213 10.82 22.4217C10.82 22.4222 10.82 22.4226 10.82 22.423C10.82 22.4234 10.82 22.4238 10.82 22.4242C10.82 22.4246 10.82 22.425 10.82 22.4255C10.82 22.4259 10.82 22.4263 10.82 22.4267C10.82 22.4271 10.82 22.4275 10.82 22.4279C10.82 22.4283 10.82 22.4288 10.82 22.4292C10.82 22.4296 10.82 22.43 10.82 22.4304C10.82 22.4308 10.82 22.4312 10.82 22.4316C10.82 22.4321 10.82 22.4325 10.82 22.4329C10.82 22.4333 10.82 22.4337 10.82 22.4341C10.82 22.4345 10.82 22.4349 10.82 22.4354C10.82 22.4358 10.82 22.4362 10.82 22.4366C10.82 22.437 10.82 22.4374 10.82 22.4378C10.82 22.4382 10.82 22.4387 10.82 22.4391C10.82 22.4395 10.82 22.4399 10.82 22.4403C10.82 22.4407 10.82 22.4411 10.82 22.4415C10.82 22.442 10.82 22.4424 10.82 22.4428C10.82 22.4432 10.82 22.4436 10.82 22.444C10.82 22.4444 10.82 22.4448 10.82 22.4453C10.82 22.4457 10.82 22.4461 10.82 22.4465C10.82 22.4469 10.82 22.4473 10.82 22.4477C10.82 22.4481 10.82 22.4486 10.82 22.449C10.82 22.4494 10.82 22.4498 10.82 22.4502C10.82 22.4506 10.82 22.451 10.82 22.4514C10.82 22.4519 10.82 22.4523 10.82 22.4527C10.82 22.4531 10.82 22.4535 10.82 22.4539C10.82 22.4543 10.82 22.4547 10.82 22.4552C10.82 22.4556 10.82 22.456 10.82 22.4564C10.82 22.4568 10.82 22.4572 10.82 22.4576C10.82 22.458 10.82 22.4585 10.82 22.4589C10.82 22.4593 10.82 22.4597 10.82 22.4601C10.82 22.4605 10.82 22.4609 10.82 22.4613C10.82 22.4618 10.82 22.4622 10.82 22.4626C10.82 22.463 10.82 22.4634 10.82 22.4638C10.82 22.4642 10.82 22.4646 10.82 22.4651C10.82 22.4655 10.82 22.4659 10.82 22.4663C10.82 22.4667 10.82 22.4671 10.82 22.4675C10.82 22.4679 10.82 22.4684 10.82 22.4688C10.82 22.4692 10.82 22.4696 10.82 22.47C10.82 22.4704 10.82 22.4708 10.82 22.4712C10.82 22.4717 10.82 22.4721 10.82 22.4725C10.82 22.4729 10.82 22.4733 10.82 22.4737C10.82 22.4741 10.82 22.4745 10.82 22.475C10.82 22.4754 10.82 22.4758 10.82 22.4762C10.82 22.4766 10.82 22.477 10.82 22.4774C10.82 22.4778 10.82 22.4783 10.82 22.4787C10.82 22.4791 10.82 22.4795 10.82 22.4799C10.82 22.4803 10.82 22.4807 10.82 22.4811C10.82 22.4816 10.82 22.482 10.82 22.4824C10.82 22.4828 10.82 22.4832 10.82 22.4836C10.82 22.484 10.82 22.4844 10.82 22.4849C10.82 22.4853 10.82 22.4857 10.82 22.4861C10.82 22.4865 10.82 22.4869 10.82 22.4873C10.82 22.4877 10.82 22.4882 10.82 22.4886C10.82 22.489 10.82 22.4894 10.82 22.4898C10.82 22.4902 10.82 22.4906 10.82 22.491C10.82 22.4915 10.82 22.4919 10.82 22.4923C10.82 22.4927 10.82 22.4931 10.82 22.4935C10.82 22.4939 10.82 22.4943 10.82 22.4948C10.82 22.4952 10.82 22.4956 10.82 22.496C10.82 22.4964 10.82 22.4968 10.82 22.4972C10.82 22.4976 10.82 22.4981 10.82 22.4985C10.82 22.4989 10.82 22.4993 10.82 22.4997C10.82 22.5001 10.82 22.5005 10.82 22.5009C10.82 22.5014 10.82 22.5018 10.82 22.5022C10.82 22.5026 10.82 22.503 10.82 22.5034C10.82 22.5038 10.82 22.5042 10.82 22.5047C10.82 22.5051 10.82 22.5055 10.82 22.5059C10.82 22.5063 10.82 22.5067 10.82 22.5071C10.82 22.5075 10.82 22.508 10.82 22.5084C10.82 22.5088 10.82 22.5092 10.82 22.5096C10.82 22.51 10.82 22.5104 10.82 22.5108C10.82 22.5113 10.82 22.5117 10.82 22.5121C10.82 22.5125 10.82 22.5129 10.82 22.5133C10.82 22.5137 10.82 22.5141 10.82 22.5146C10.82 22.515 10.82 22.5154 10.82 22.5158C10.82 22.5162 10.82 22.5166 10.82 22.517C10.82 22.5174 10.82 22.5179 10.82 22.5183C10.82 22.5187 10.82 22.5191 10.82 22.5195C10.82 22.5199 10.82 22.5203 10.82 22.5207C10.82 22.5212 10.82 22.5216 10.82 22.522C10.82 22.5224 10.82 22.5228 10.82 22.5232C10.82 22.5236 10.82 22.524 10.82 22.5245C10.82 22.5249 10.82 22.5253 10.82 22.5257C10.82 22.5261 10.82 22.5265 10.82 22.5269C10.82 22.5273 10.82 22.5278 10.82 22.5282C10.82 22.5286 10.82 22.529 10.82 22.5294C10.82 22.5298 10.82 22.5302 10.82 22.5306C10.82 22.5311 10.82 22.5315 10.82 22.5319C10.82 22.5323 10.82 22.5327 10.82 22.5331C10.82 22.5335 10.82 22.5339 10.82 22.5344C10.82 22.5348 10.82 22.5352 10.82 22.5356C10.82 22.536 10.82 22.5364 10.82 22.5368C10.82 22.5372 10.82 22.5377 10.82 22.5381C10.82 22.5385 10.82 22.5389 10.82 22.5393C10.82 22.5397 10.82 22.5401 10.82 22.5405C10.82 22.541 10.82 22.5414 10.82 22.5418C10.82 22.5422 10.82 22.5426 10.82 22.543C10.82 22.5434 10.82 22.5438 10.82 22.5443C10.82 22.5447 10.82 22.5451 10.82 22.5455C10.82 22.5459 10.82 22.5463 10.82 22.5467C10.82 22.5471 10.82 22.5476 10.82 22.548C10.82 22.5484 10.82 22.5488 10.82 22.5492C10.82 22.5496 10.82 22.55 10.82 22.5504C10.82 22.5509 10.82 22.5513 10.82 22.5517C10.82 22.5521 10.82 22.5525 10.82 22.5529C10.82 22.5533 10.82 22.5537 10.82 22.5542C10.82 22.5546 10.82 22.555 10.82 22.5554C10.82 22.5558 10.82 22.5562 10.82 22.5566C10.82 22.557 10.82 22.5575 10.82 22.5579C10.82 22.5583 10.82 22.5587 10.82 22.5591C10.82 22.5595 10.82 22.5599 10.82 22.5603C10.82 22.5608 10.82 22.5612 10.82 22.5616C10.82 22.562 10.82 22.5624 10.82 22.5628C10.82 22.5632 10.82 22.5636 10.82 22.5641C10.82 22.5645 10.82 22.5649 10.82 22.5653C10.82 22.5657 10.82 22.5661 10.82 22.5665C10.82 22.5669 10.82 22.5674 10.82 22.5678C10.82 22.5682 10.82 22.5686 10.82 22.569C10.82 22.5694 10.82 22.5698 10.82 22.5702C10.82 22.5707 10.82 22.5711 10.82 22.5715C10.82 22.5719 10.82 22.5723 10.82 22.5727C10.82 22.5731 10.82 22.5735 10.82 22.574C10.82 22.5744 10.82 22.5748 10.82 22.5752C10.82 22.5756 10.82 22.576 10.82 22.5764C10.82 22.5768 10.82 22.5773 10.82 22.5777C10.82 22.5781 10.82 22.5785 10.82 22.5789C10.82 22.5793 10.82 22.5797 10.82 22.5801C10.82 22.5806 10.82 22.581 10.82 22.5814C10.82 22.5818 10.82 22.5822 10.82 22.5826C10.82 22.583 10.82 22.5834 10.82 22.5839C10.82 22.5843 10.82 22.5847 10.82 22.5851C10.82 22.5855 10.82 22.5859 10.82 22.5863C10.82 22.5867 10.82 22.5872 10.82 22.5876C10.82 22.588 10.82 22.5884 10.82 22.5888C10.82 22.5892 10.82 22.5896 10.82 22.59C10.82 22.5905 10.82 22.5909 10.82 22.5913C10.82 22.5917 10.82 22.5921 10.82 22.5925C10.82 22.5929 10.82 22.5933 10.82 22.5938C10.82 22.5942 10.82 22.5946 10.82 22.595C10.82 22.5954 10.82 22.5958 10.82 22.5962C10.82 22.5966 10.82 22.5971 10.82 22.5975C10.82 22.5979 10.82 22.5983 10.82 22.5987C10.82 22.5991 10.82 22.5995 10.82 22.5999C10.82 22.6004 10.82 22.6008 10.82 22.6012C10.82 22.6016 10.82 22.602 10.82 22.6024C10.82 22.6028 10.82 22.6032 10.82 22.6037C10.82 22.6041 10.82 22.6045 10.82 22.6049C10.82 22.6053 10.82 22.6057 10.82 22.6061C10.82 22.6065 10.82 22.607 10.82 22.6074C10.82 22.6078 10.82 22.6082 10.82 22.6086C10.82 22.609 10.82 22.6094 10.82 22.6098C10.82 22.6103 10.82 22.6107 10.82 22.6111C10.82 22.6115 10.82 22.6119 10.82 22.6123C10.82 22.6127 10.82 22.6131 10.82 22.6136C10.82 22.614 10.82 22.6144 10.82 22.6148C10.82 22.6152 10.82 22.6156 10.82 22.616C10.82 22.6164 10.82 22.6169 10.82 22.6173C10.82 22.6177 10.82 22.6181 10.82 22.6185C10.82 22.6189 10.82 22.6193 10.82 22.6197C10.82 22.6202 10.82 22.6206 10.82 22.621C10.82 22.6214 10.82 22.6218 10.82 22.6222C10.82 22.6226 10.82 22.623 10.82 22.6235C10.82 22.6239 10.82 22.6243 10.82 22.6247C10.82 22.6251 10.82 22.6255 10.82 22.6259C10.82 22.6263 10.82 22.6268 10.82 22.6272C10.82 22.6276 10.82 22.628 10.82 22.6284C10.82 22.6288 10.82 22.6292 10.82 22.6296C10.82 22.6301 10.82 22.6305 10.82 22.6309C10.82 22.6313 10.82 22.6317 10.82 22.6321C10.82 22.6325 10.82 22.6329 10.82 22.6334C10.82 22.6338 10.82 22.6342 10.82 22.6346C10.82 22.635 10.82 22.6354 10.82 22.6358C10.82 22.6362 10.82 22.6367 10.82 22.6371C10.82 22.6375 10.82 22.6379 10.82 22.6383C10.82 22.6387 10.82 22.6391 10.82 22.6395C10.82 22.64 10.82 22.6404 10.82 22.6408C10.82 22.6412 10.82 22.6416 10.82 22.642C10.82 22.6424 10.82 22.6428 10.82 22.6433C10.82 22.6437 10.82 22.6441 10.82 22.6445C10.82 22.6449 10.82 22.6453 10.82 22.6457C10.82 22.6461 10.82 22.6466 10.82 22.647C10.82 22.6474 10.82 22.6478 10.82 22.6482C10.82 22.6486 10.82 22.649 10.82 22.6494C10.82 22.6499 10.82 22.6503 10.82 22.6507C10.82 22.6511 10.82 22.6515 10.82 22.6519C10.82 22.6523 10.82 22.6527 10.82 22.6532C10.82 22.6536 10.82 22.654 10.82 22.6544C10.82 22.6548 10.82 22.6552 10.82 22.6556C10.82 22.656 10.82 22.6565 10.82 22.6569C10.82 22.6573 10.82 22.6577 10.82 22.6581C10.82 22.6585 10.82 22.6589 10.82 22.6593C10.82 22.6598 10.82 22.6602 10.82 22.6606C10.82 22.661 10.82 22.6614 10.82 22.6618C10.82 22.6622 10.82 22.6626 10.82 22.6631C10.82 22.6635 10.82 22.6639 10.82 22.6643C10.82 22.6647 10.82 22.6651 10.82 22.6655C10.82 22.6659 10.82 22.6664 10.82 22.6668C10.82 22.6672 10.82 22.6676 10.82 22.668C10.82 22.6684 10.82 22.6688 10.82 22.6692C10.82 22.6697 10.82 22.6701 10.82 22.6705C10.82 22.6709 10.82 22.6713 10.82 22.6717C10.82 22.6721 10.82 22.6725 10.82 22.673C10.82 22.6734 10.82 22.6738 10.82 22.6742C10.82 22.6746 10.82 22.675 10.82 22.6754C10.82 22.6758 10.82 22.6763 10.82 22.6767C10.82 22.6771 10.82 22.6775 10.82 22.6779C10.82 22.6783 10.82 22.6787 10.82 22.6791C10.82 22.6796 10.82 22.68 10.82 22.6804C10.82 22.6808 10.82 22.6812 10.82 22.6816C10.82 22.682 10.82 22.6824 10.82 22.6829C10.82 22.6833 10.82 22.6837 10.82 22.6841C10.82 22.6845 10.82 22.6849 10.82 22.6853C10.82 22.6857 10.82 22.6862 10.82 22.6866C10.82 22.687 10.82 22.6874 10.82 22.6878C10.82 22.6882 10.82 22.6886 10.82 22.689C10.82 22.6895 10.82 22.6899 10.82 22.6903C10.82 22.6907 10.82 22.6911 10.82 22.6915C10.82 22.6919 10.82 22.6923 10.82 22.6928C10.82 22.6932 10.82 22.6936 10.82 22.694C10.82 22.6944 10.82 22.6948 10.82 22.6952C10.82 22.6956 10.82 22.6961 10.82 22.6965C10.82 22.6969 10.82 22.6973 10.82 22.6977C10.82 22.6981 10.82 22.6985 10.82 22.6989C10.82 22.6994 10.82 22.6998 10.82 22.7002C10.82 22.7006 10.82 22.701 10.82 22.7014C10.82 22.7018 10.82 22.7022 10.82 22.7027C10.82 22.7031 10.82 22.7035 10.82 22.7039C10.82 22.7043 10.82 22.7047 10.82 22.7051C10.82 22.7055 10.82 22.706 10.82 22.7064C10.82 22.7068 10.82 22.7072 10.82 22.7076C10.82 22.708 10.82 22.7084 10.82 22.7088C10.82 22.7093 10.82 22.7097 10.82 22.7101C10.82 22.7105 10.82 22.7109 10.82 22.7113C10.82 22.7117 10.82 22.7121 10.82 22.7126C10.82 22.713 10.82 22.7134 10.82 22.7138C10.82 22.7142 10.82 22.7146 10.82 22.715C10.82 22.7154 10.82 22.7159 10.82 22.7163C10.82 22.7167 10.82 22.7171 10.82 22.7175C10.82 22.7179 10.82 22.7183 10.82 22.7187C10.82 22.7192 10.82 22.7196 10.82 22.72C10.82 22.7204 10.82 22.7208 10.82 22.7212C10.82 22.7216 10.82 22.722 10.82 22.7225C10.82 22.7229 10.82 22.7233 10.82 22.7237C10.82 22.7241 10.82 22.7245 10.82 22.7249C10.82 22.7253 10.82 22.7258 10.82 22.7262C10.82 22.7266 10.82 22.727 10.82 22.7274C10.82 22.7278 10.82 22.7282 10.82 22.7286C10.82 22.7291 10.82 22.7295 10.82 22.7299C10.82 22.7303 10.82 22.7307 10.82 22.7311C10.82 22.7315 10.82 22.7319 10.82 22.7324C10.82 22.7328 10.82 22.7332 10.82 22.7336C10.82 22.734 10.82 22.7344 10.82 22.7348C10.82 22.7352 10.82 22.7357 10.82 22.7361C10.82 22.7365 10.82 22.7369 10.82 22.7373C10.82 22.7377 10.82 22.7381 10.82 22.7385C10.82 22.739 10.82 22.7394 10.82 22.7398C10.82 22.7402 10.82 22.7406 10.82 22.741C10.82 22.7414 10.82 22.7418 10.82 22.7423C10.82 22.7427 10.82 22.7431 10.82 22.7435C10.82 22.7439 10.82 22.7443 10.82 22.7447C10.82 22.7451 10.82 22.7456 10.82 22.746C10.82 22.7464 10.82 22.7468 10.82 22.7472C10.82 22.7476 10.82 22.748 10.82 22.7484C10.82 22.7489 10.82 22.7493 10.82 22.7497C10.82 22.7501 10.82 22.7505 10.82 22.7509C10.82 22.7513 10.82 22.7517 10.82 22.7522C10.82 22.7526 10.82 22.753 10.82 22.7534C10.82 22.7538 10.82 22.7542 10.82 22.7546C10.82 22.755 10.82 22.7555 10.82 22.7559C10.82 22.7563 10.82 22.7567 10.82 22.7571C10.82 22.7575 10.82 22.7579 10.82 22.7583C10.82 22.7588 10.82 22.7592 10.82 22.7596C10.82 22.76 10.82 22.7604 10.82 22.7608C10.82 22.7612 10.82 22.7616 10.82 22.7621C10.82 22.7625 10.82 22.7629 10.82 22.7633C10.82 22.7637 10.82 22.7641 10.82 22.7645C10.82 22.7649 10.82 22.7654 10.82 22.7658C10.82 22.7662 10.82 22.7666 10.82 22.767C10.82 22.7674 10.82 22.7678 10.82 22.7682C10.82 22.7687 10.82 22.7691 10.82 22.7695C10.82 22.7699 10.82 22.7703 10.82 22.7707C10.82 22.7711 10.82 22.7715 10.82 22.772C10.82 22.7724 10.82 22.7728 10.82 22.7732C10.82 22.7736 10.82 22.774 10.82 22.7744C10.82 22.7748 10.82 22.7753 10.82 22.7757C10.82 22.7761 10.82 22.7765 10.82 22.7769C10.82 22.7773 10.82 22.7777 10.82 22.7781C10.82 22.7786 10.82 22.779 10.82 22.7794C10.82 22.7798 10.82 22.7802 10.82 22.7806C10.82 22.781 10.82 22.7814 10.82 22.7819C10.82 22.7823 10.82 22.7827 10.82 22.7831C10.82 22.7835 10.82 22.7839 10.82 22.7843C10.82 22.7847 10.82 22.7852 10.82 22.7856C10.82 22.786 10.82 22.7864 10.82 22.7868C10.82 22.7872 10.82 22.7876 10.82 22.788C10.82 22.7885 10.82 22.7889 10.82 22.7893C10.82 22.7897 10.82 22.7901 10.82 22.7905C10.82 22.7909 10.82 22.7913 10.82 22.7918C10.82 22.7922 10.82 22.7926 10.82 22.793C10.82 22.7934 10.82 22.7938 10.82 22.7942C10.82 22.7946 10.82 22.7951 10.82 22.7955C10.82 22.7959 10.82 22.7963 10.82 22.7967C10.82 22.7971 10.82 22.7975 10.82 22.7979C10.82 22.7984 10.82 22.7988 10.82 22.7992C10.82 22.7996 10.82 22.8 10.82 22.8004C10.82 22.8008 10.82 22.8012 10.82 22.8017C10.82 22.8021 10.82 22.8025 10.82 22.8029C10.82 22.8033 10.82 22.8037 10.82 22.8041C10.82 22.8045 10.82 22.805 10.82 22.8054C10.82 22.8058 10.82 22.8062 10.82 22.8066C10.82 22.807 10.82 22.8074 10.82 22.8078C10.82 22.8083 10.82 22.8087 10.82 22.8091C10.82 22.8095 10.82 22.8099 10.82 22.8103C10.82 22.8107 10.82 22.8111 10.82 22.8116C10.82 22.812 10.82 22.8124 10.82 22.8128C10.82 22.8132 10.82 22.8136 10.82 22.814C10.82 22.8144 10.82 22.8149 10.82 22.8153C10.82 22.8157 10.82 22.8161 10.82 22.8165C10.82 22.8169 10.82 22.8173 10.82 22.8177C10.82 22.8182 10.82 22.8186 10.82 22.819C10.82 22.8194 10.82 22.8198 10.82 22.8202C10.82 22.8206 10.82 22.821 10.82 22.8215C10.82 22.8219 10.82 22.8223 10.82 22.8227C10.82 22.8231 10.82 22.8235 10.82 22.8239C10.82 22.8243 10.82 22.8248 10.82 22.8252C10.82 22.8256 10.82 22.826 10.82 22.8264C10.82 22.8268 10.82 22.8272 10.82 22.8276C10.82 22.8281 10.82 22.8285 10.82 22.8289C10.82 22.8293 10.82 22.8297 10.82 22.8301C10.82 22.8305 10.82 22.8309 10.82 22.8314C10.82 22.8318 10.82 22.8322 10.82 22.8326C10.82 22.833 10.82 22.8334 10.82 22.8338C10.82 22.8342 10.82 22.8347 10.82 22.8351C10.82 22.8355 10.82 22.8359 10.82 22.8363C10.82 22.8367 10.82 22.8371 10.82 22.8375C10.82 22.838 10.82 22.8384 10.82 22.8388C10.82 22.8392 10.82 22.8396 10.82 22.84C10.82 22.8404 10.82 22.8408 10.82 22.8413C10.82 22.8417 10.82 22.8421 10.82 22.8425C10.82 22.8429 10.82 22.8433 10.82 22.8437C10.82 22.8441 10.82 22.8446 10.82 22.845C10.82 22.8454 10.82 22.8458 10.82 22.8462C10.82 22.8466 10.82 22.847 10.82 22.8474C10.82 22.8479 10.82 22.8483 10.82 22.8487C10.82 22.8491 10.82 22.8495 10.82 22.8499C10.82 22.8503 10.82 22.8507 10.82 22.8512C10.82 22.8516 10.82 22.852 10.82 22.8524C10.82 22.8528 10.82 22.8532 10.82 22.8536C10.82 22.854 10.82 22.8545 10.82 22.8549C10.82 22.8553 10.82 22.8557 10.82 22.8561C10.82 22.8565 10.82 22.8569 10.82 22.8573C10.82 22.8578 10.82 22.8582 10.82 22.8586C10.82 22.859 10.82 22.8594 10.82 22.8598C10.82 22.8602 10.82 22.8606 10.82 22.8611C10.82 22.8615 10.82 22.8619 10.82 22.8623C10.82 22.8627 10.82 22.8631 10.82 22.8635C10.82 22.8639 10.82 22.8644 10.82 22.8648C10.82 22.8652 10.82 22.8656 10.82 22.866C10.82 22.8664 10.82 22.8668 10.82 22.8672C10.82 22.8677 10.82 22.8681 10.82 22.8685C10.82 22.8689 10.82 22.8693 10.82 22.8697C10.82 22.8701 10.82 22.8705 10.82 22.871C10.82 22.8714 10.82 22.8718 10.82 22.8722C10.82 22.8726 10.82 22.873 10.82 22.8734C10.82 22.8738 10.82 22.8743 10.82 22.8747C10.82 22.8751 10.82 22.8755 10.82 22.8759C10.82 22.8763 10.82 22.8767 10.82 22.8771C10.82 22.8776 10.82 22.878 10.82 22.8784C10.82 22.8788 10.82 22.8792 10.82 22.8796C10.82 22.88 10.82 22.8804 10.82 22.8809C10.82 22.8813 10.82 22.8817 10.82 22.8821C10.82 22.8825 10.82 22.8829 10.82 22.8833C10.82 22.8837 10.82 22.8842 10.82 22.8846C10.82 22.885 10.82 22.8854 10.82 22.8858C10.82 22.8862 10.82 22.8866 10.82 22.887C10.82 22.8875 10.82 22.8879 10.82 22.8883C10.82 22.8887 10.82 22.8891 10.82 22.8895C10.82 22.8899 10.82 22.8903 10.82 22.8908C10.82 22.8912 10.82 22.8916 10.82 22.892C10.82 22.8924 10.82 22.8928 10.82 22.8932C10.82 22.8936 10.82 22.8941 10.82 22.8945C10.82 22.8949 10.82 22.8953 10.82 22.8957C10.82 22.8961 10.82 22.8965 10.82 22.8969C10.82 22.8974 10.82 22.8978 10.82 22.8982C10.82 22.8986 10.82 22.899 10.82 22.8994C10.82 22.8998 10.82 22.9002 10.82 22.9007C10.82 22.9011 10.82 22.9015 10.82 22.9019C10.82 22.9023 10.82 22.9027 10.82 22.9031C10.82 22.9035 10.82 22.904 10.82 22.9044C10.82 22.9048 10.82 22.9052 10.82 22.9056C10.82 22.906 10.82 22.9064 10.82 22.9068C10.82 22.9073 10.82 22.9077 10.82 22.9081C10.82 22.9085 10.82 22.9089 10.82 22.9093C10.82 22.9097 10.82 22.9101 10.82 22.9106C10.82 22.911 10.82 22.9114 10.82 22.9118C10.82 22.9122 10.82 22.9126 10.82 22.913C10.82 22.9134 10.82 22.9139 10.82 22.9143C10.82 22.9147 10.82 22.9151 10.82 22.9155C10.82 22.9159 10.82 22.9163 10.82 22.9167C10.82 22.9172 10.82 22.9176 10.82 22.918C10.82 22.9184 10.82 22.9188 10.82 22.9192C10.82 22.9196 10.82 22.92 10.82 22.9205C10.82 22.9209 10.82 22.9213 10.82 22.9217C10.82 22.9221 10.82 22.9225 10.82 22.9229C10.82 22.9233 10.82 22.9238 10.82 22.9242C10.82 22.9246 10.82 22.925 10.82 22.9254C10.82 22.9258 10.82 22.9262 10.82 22.9266C10.82 22.9271 10.82 22.9275 10.82 22.9279C10.82 22.9283 10.82 22.9287 10.82 22.9291C10.82 22.9295 10.82 22.9299 10.82 22.9304C10.82 22.9308 10.82 22.9312 10.82 22.9316C10.82 22.932 10.82 22.9324 10.82 22.9328C10.82 22.9332 10.82 22.9337 10.82 22.9341C10.82 22.9345 10.82 22.9349 10.82 22.9353C10.82 22.9357 10.82 22.9361 10.82 22.9365C10.82 22.937 10.82 22.9374 10.82 22.9378C10.82 22.9382 10.82 22.9386 10.82 22.939C10.82 22.9394 10.82 22.9398 10.82 22.9403C10.82 22.9407 10.82 22.9411 10.82 22.9415C10.82 22.9419 10.82 22.9423 10.82 22.9427C10.82 22.9431 10.82 22.9436 10.82 22.944C10.82 22.9444 10.82 22.9448 10.82 22.9452C10.82 22.9456 10.82 22.946 10.82 22.9464C10.82 22.9469 10.82 22.9473 10.82 22.9477C10.82 22.9481 10.82 22.9485 10.82 22.9489C10.82 22.9493 10.82 22.9497 10.82 22.9502C10.82 22.9506 10.82 22.951 10.82 22.9514C10.82 22.9518 10.82 22.9522 10.82 22.9526C10.82 22.953 10.82 22.9535 10.82 22.9539C10.82 22.9543 10.82 22.9547 10.82 22.9551C10.82 22.9555 10.82 22.9559 10.82 22.9563C10.82 22.9568 10.82 22.9572 10.82 22.9576C10.82 22.958 10.82 22.9584 10.82 22.9588C10.82 22.9592 10.82 22.9596 10.82 22.9601C10.82 22.9605 10.82 22.9609 10.82 22.9613C10.82 22.9617 10.82 22.9621 10.82 22.9625C10.82 22.9629 10.82 22.9634 10.82 22.9638C10.82 22.9642 10.82 22.9646 10.82 22.965C10.82 22.9654 10.82 22.9658 10.82 22.9662C10.82 22.9667 10.82 22.9671 10.82 22.9675C10.82 22.9679 10.82 22.9683 10.82 22.9687C10.82 22.9691 10.82 22.9695 10.82 22.97C10.82 22.9704 10.82 22.9708 10.82 22.9712C10.82 22.9716 10.82 22.972 10.82 22.9724C10.82 22.9728 10.82 22.9733 10.82 22.9737C10.82 22.9741 10.82 22.9745 10.82 22.9749C10.82 22.9753 10.82 22.9757 10.82 22.9761C10.82 22.9766 10.82 22.977 10.82 22.9774C10.82 22.9778 10.82 22.9782 10.82 22.9786C10.82 22.979 10.82 22.9794 10.82 22.9799C10.82 22.9803 10.82 22.9807 10.82 22.9811C10.82 22.9815 10.82 22.9819 10.82 22.9823C10.82 22.9827 10.82 22.9832 10.82 22.9836C10.82 22.984 10.82 22.9844 10.82 22.9848C10.82 22.9852 10.82 22.9856 10.82 22.986C10.82 22.9865 10.82 22.9869 10.82 22.9873C10.82 22.9877 10.82 22.9881 10.82 22.9885C10.82 22.9889 10.82 22.9893 10.82 22.9898C10.82 22.9902 10.82 22.9906 10.82 22.991C10.82 22.9914 10.82 22.9918 10.82 22.9922C10.82 22.9926 10.82 22.9931 10.82 22.9935C10.82 22.9939 10.82 22.9943 10.82 22.9947C10.82 22.9951 10.82 22.9955 10.82 22.9959C10.82 22.9964 10.82 22.9968 10.82 22.9972C10.82 22.9976 10.82 22.998 10.82 22.9984C10.82 22.9988 10.82 22.9992 10.82 22.9997C10.82 23.0001 10.82 23.0005 10.82 23.0009C10.82 23.0013 10.82 23.0017 10.82 23.0021C10.82 23.0025 10.82 23.003 10.82 23.0034C10.82 23.0038 10.82 23.0042 10.82 23.0046C10.82 23.005 10.82 23.0054 10.82 23.0058C10.82 23.0063 10.82 23.0067 10.82 23.0071C10.82 23.0075 10.82 23.0079 10.82 23.0083C10.82 23.0087 10.82 23.0091 10.82 23.0096C10.82 23.01 10.82 23.0104 10.82 23.0108H11.92C11.92 23.0104 11.92 23.01 11.92 23.0096C11.92 23.0091 11.92 23.0087 11.92 23.0083C11.92 23.0079 11.92 23.0075 11.92 23.0071C11.92 23.0067 11.92 23.0063 11.92 23.0058C11.92 23.0054 11.92 23.005 11.92 23.0046C11.92 23.0042 11.92 23.0038 11.92 23.0034C11.92 23.003 11.92 23.0025 11.92 23.0021C11.92 23.0017 11.92 23.0013 11.92 23.0009C11.92 23.0005 11.92 23.0001 11.92 22.9997C11.92 22.9992 11.92 22.9988 11.92 22.9984C11.92 22.998 11.92 22.9976 11.92 22.9972C11.92 22.9968 11.92 22.9964 11.92 22.9959C11.92 22.9955 11.92 22.9951 11.92 22.9947C11.92 22.9943 11.92 22.9939 11.92 22.9935C11.92 22.9931 11.92 22.9926 11.92 22.9922C11.92 22.9918 11.92 22.9914 11.92 22.991C11.92 22.9906 11.92 22.9902 11.92 22.9898C11.92 22.9893 11.92 22.9889 11.92 22.9885C11.92 22.9881 11.92 22.9877 11.92 22.9873C11.92 22.9869 11.92 22.9865 11.92 22.986C11.92 22.9856 11.92 22.9852 11.92 22.9848C11.92 22.9844 11.92 22.984 11.92 22.9836C11.92 22.9832 11.92 22.9827 11.92 22.9823C11.92 22.9819 11.92 22.9815 11.92 22.9811C11.92 22.9807 11.92 22.9803 11.92 22.9799C11.92 22.9794 11.92 22.979 11.92 22.9786C11.92 22.9782 11.92 22.9778 11.92 22.9774C11.92 22.977 11.92 22.9766 11.92 22.9761C11.92 22.9757 11.92 22.9753 11.92 22.9749C11.92 22.9745 11.92 22.9741 11.92 22.9737C11.92 22.9733 11.92 22.9728 11.92 22.9724C11.92 22.972 11.92 22.9716 11.92 22.9712C11.92 22.9708 11.92 22.9704 11.92 22.97C11.92 22.9695 11.92 22.9691 11.92 22.9687C11.92 22.9683 11.92 22.9679 11.92 22.9675C11.92 22.9671 11.92 22.9667 11.92 22.9662C11.92 22.9658 11.92 22.9654 11.92 22.965C11.92 22.9646 11.92 22.9642 11.92 22.9638C11.92 22.9634 11.92 22.9629 11.92 22.9625C11.92 22.9621 11.92 22.9617 11.92 22.9613C11.92 22.9609 11.92 22.9605 11.92 22.9601C11.92 22.9596 11.92 22.9592 11.92 22.9588C11.92 22.9584 11.92 22.958 11.92 22.9576C11.92 22.9572 11.92 22.9568 11.92 22.9563C11.92 22.9559 11.92 22.9555 11.92 22.9551C11.92 22.9547 11.92 22.9543 11.92 22.9539C11.92 22.9535 11.92 22.953 11.92 22.9526C11.92 22.9522 11.92 22.9518 11.92 22.9514C11.92 22.951 11.92 22.9506 11.92 22.9502C11.92 22.9497 11.92 22.9493 11.92 22.9489C11.92 22.9485 11.92 22.9481 11.92 22.9477C11.92 22.9473 11.92 22.9469 11.92 22.9464C11.92 22.946 11.92 22.9456 11.92 22.9452C11.92 22.9448 11.92 22.9444 11.92 22.944C11.92 22.9436 11.92 22.9431 11.92 22.9427C11.92 22.9423 11.92 22.9419 11.92 22.9415C11.92 22.9411 11.92 22.9407 11.92 22.9403C11.92 22.9398 11.92 22.9394 11.92 22.939C11.92 22.9386 11.92 22.9382 11.92 22.9378C11.92 22.9374 11.92 22.937 11.92 22.9365C11.92 22.9361 11.92 22.9357 11.92 22.9353C11.92 22.9349 11.92 22.9345 11.92 22.9341C11.92 22.9337 11.92 22.9332 11.92 22.9328C11.92 22.9324 11.92 22.932 11.92 22.9316C11.92 22.9312 11.92 22.9308 11.92 22.9304C11.92 22.9299 11.92 22.9295 11.92 22.9291C11.92 22.9287 11.92 22.9283 11.92 22.9279C11.92 22.9275 11.92 22.9271 11.92 22.9266C11.92 22.9262 11.92 22.9258 11.92 22.9254C11.92 22.925 11.92 22.9246 11.92 22.9242C11.92 22.9238 11.92 22.9233 11.92 22.9229C11.92 22.9225 11.92 22.9221 11.92 22.9217C11.92 22.9213 11.92 22.9209 11.92 22.9205C11.92 22.92 11.92 22.9196 11.92 22.9192C11.92 22.9188 11.92 22.9184 11.92 22.918C11.92 22.9176 11.92 22.9172 11.92 22.9167C11.92 22.9163 11.92 22.9159 11.92 22.9155C11.92 22.9151 11.92 22.9147 11.92 22.9143C11.92 22.9139 11.92 22.9134 11.92 22.913C11.92 22.9126 11.92 22.9122 11.92 22.9118C11.92 22.9114 11.92 22.911 11.92 22.9106C11.92 22.9101 11.92 22.9097 11.92 22.9093C11.92 22.9089 11.92 22.9085 11.92 22.9081C11.92 22.9077 11.92 22.9073 11.92 22.9068C11.92 22.9064 11.92 22.906 11.92 22.9056C11.92 22.9052 11.92 22.9048 11.92 22.9044C11.92 22.904 11.92 22.9035 11.92 22.9031C11.92 22.9027 11.92 22.9023 11.92 22.9019C11.92 22.9015 11.92 22.9011 11.92 22.9007C11.92 22.9002 11.92 22.8998 11.92 22.8994C11.92 22.899 11.92 22.8986 11.92 22.8982C11.92 22.8978 11.92 22.8974 11.92 22.8969C11.92 22.8965 11.92 22.8961 11.92 22.8957C11.92 22.8953 11.92 22.8949 11.92 22.8945C11.92 22.8941 11.92 22.8936 11.92 22.8932C11.92 22.8928 11.92 22.8924 11.92 22.892C11.92 22.8916 11.92 22.8912 11.92 22.8908C11.92 22.8903 11.92 22.8899 11.92 22.8895C11.92 22.8891 11.92 22.8887 11.92 22.8883C11.92 22.8879 11.92 22.8875 11.92 22.887C11.92 22.8866 11.92 22.8862 11.92 22.8858C11.92 22.8854 11.92 22.885 11.92 22.8846C11.92 22.8842 11.92 22.8837 11.92 22.8833C11.92 22.8829 11.92 22.8825 11.92 22.8821C11.92 22.8817 11.92 22.8813 11.92 22.8809C11.92 22.8804 11.92 22.88 11.92 22.8796C11.92 22.8792 11.92 22.8788 11.92 22.8784C11.92 22.878 11.92 22.8776 11.92 22.8771C11.92 22.8767 11.92 22.8763 11.92 22.8759C11.92 22.8755 11.92 22.8751 11.92 22.8747C11.92 22.8743 11.92 22.8738 11.92 22.8734C11.92 22.873 11.92 22.8726 11.92 22.8722C11.92 22.8718 11.92 22.8714 11.92 22.871C11.92 22.8705 11.92 22.8701 11.92 22.8697C11.92 22.8693 11.92 22.8689 11.92 22.8685C11.92 22.8681 11.92 22.8677 11.92 22.8672C11.92 22.8668 11.92 22.8664 11.92 22.866C11.92 22.8656 11.92 22.8652 11.92 22.8648C11.92 22.8644 11.92 22.8639 11.92 22.8635C11.92 22.8631 11.92 22.8627 11.92 22.8623C11.92 22.8619 11.92 22.8615 11.92 22.8611C11.92 22.8606 11.92 22.8602 11.92 22.8598C11.92 22.8594 11.92 22.859 11.92 22.8586C11.92 22.8582 11.92 22.8578 11.92 22.8573C11.92 22.8569 11.92 22.8565 11.92 22.8561C11.92 22.8557 11.92 22.8553 11.92 22.8549C11.92 22.8545 11.92 22.854 11.92 22.8536C11.92 22.8532 11.92 22.8528 11.92 22.8524C11.92 22.852 11.92 22.8516 11.92 22.8512C11.92 22.8507 11.92 22.8503 11.92 22.8499C11.92 22.8495 11.92 22.8491 11.92 22.8487C11.92 22.8483 11.92 22.8479 11.92 22.8474C11.92 22.847 11.92 22.8466 11.92 22.8462C11.92 22.8458 11.92 22.8454 11.92 22.845C11.92 22.8446 11.92 22.8441 11.92 22.8437C11.92 22.8433 11.92 22.8429 11.92 22.8425C11.92 22.8421 11.92 22.8417 11.92 22.8413C11.92 22.8408 11.92 22.8404 11.92 22.84C11.92 22.8396 11.92 22.8392 11.92 22.8388C11.92 22.8384 11.92 22.838 11.92 22.8375C11.92 22.8371 11.92 22.8367 11.92 22.8363C11.92 22.8359 11.92 22.8355 11.92 22.8351C11.92 22.8347 11.92 22.8342 11.92 22.8338C11.92 22.8334 11.92 22.833 11.92 22.8326C11.92 22.8322 11.92 22.8318 11.92 22.8314C11.92 22.8309 11.92 22.8305 11.92 22.8301C11.92 22.8297 11.92 22.8293 11.92 22.8289C11.92 22.8285 11.92 22.8281 11.92 22.8276C11.92 22.8272 11.92 22.8268 11.92 22.8264C11.92 22.826 11.92 22.8256 11.92 22.8252C11.92 22.8248 11.92 22.8243 11.92 22.8239C11.92 22.8235 11.92 22.8231 11.92 22.8227C11.92 22.8223 11.92 22.8219 11.92 22.8215C11.92 22.821 11.92 22.8206 11.92 22.8202C11.92 22.8198 11.92 22.8194 11.92 22.819C11.92 22.8186 11.92 22.8182 11.92 22.8177C11.92 22.8173 11.92 22.8169 11.92 22.8165C11.92 22.8161 11.92 22.8157 11.92 22.8153C11.92 22.8149 11.92 22.8144 11.92 22.814C11.92 22.8136 11.92 22.8132 11.92 22.8128C11.92 22.8124 11.92 22.812 11.92 22.8116C11.92 22.8111 11.92 22.8107 11.92 22.8103C11.92 22.8099 11.92 22.8095 11.92 22.8091C11.92 22.8087 11.92 22.8083 11.92 22.8078C11.92 22.8074 11.92 22.807 11.92 22.8066C11.92 22.8062 11.92 22.8058 11.92 22.8054C11.92 22.805 11.92 22.8045 11.92 22.8041C11.92 22.8037 11.92 22.8033 11.92 22.8029C11.92 22.8025 11.92 22.8021 11.92 22.8017C11.92 22.8012 11.92 22.8008 11.92 22.8004C11.92 22.8 11.92 22.7996 11.92 22.7992C11.92 22.7988 11.92 22.7984 11.92 22.7979C11.92 22.7975 11.92 22.7971 11.92 22.7967C11.92 22.7963 11.92 22.7959 11.92 22.7955C11.92 22.7951 11.92 22.7946 11.92 22.7942C11.92 22.7938 11.92 22.7934 11.92 22.793C11.92 22.7926 11.92 22.7922 11.92 22.7918C11.92 22.7913 11.92 22.7909 11.92 22.7905C11.92 22.7901 11.92 22.7897 11.92 22.7893C11.92 22.7889 11.92 22.7885 11.92 22.788C11.92 22.7876 11.92 22.7872 11.92 22.7868C11.92 22.7864 11.92 22.786 11.92 22.7856C11.92 22.7852 11.92 22.7847 11.92 22.7843C11.92 22.7839 11.92 22.7835 11.92 22.7831C11.92 22.7827 11.92 22.7823 11.92 22.7819C11.92 22.7814 11.92 22.781 11.92 22.7806C11.92 22.7802 11.92 22.7798 11.92 22.7794C11.92 22.779 11.92 22.7786 11.92 22.7781C11.92 22.7777 11.92 22.7773 11.92 22.7769C11.92 22.7765 11.92 22.7761 11.92 22.7757C11.92 22.7753 11.92 22.7748 11.92 22.7744C11.92 22.774 11.92 22.7736 11.92 22.7732C11.92 22.7728 11.92 22.7724 11.92 22.772C11.92 22.7715 11.92 22.7711 11.92 22.7707C11.92 22.7703 11.92 22.7699 11.92 22.7695C11.92 22.7691 11.92 22.7687 11.92 22.7682C11.92 22.7678 11.92 22.7674 11.92 22.767C11.92 22.7666 11.92 22.7662 11.92 22.7658C11.92 22.7654 11.92 22.7649 11.92 22.7645C11.92 22.7641 11.92 22.7637 11.92 22.7633C11.92 22.7629 11.92 22.7625 11.92 22.7621C11.92 22.7616 11.92 22.7612 11.92 22.7608C11.92 22.7604 11.92 22.76 11.92 22.7596C11.92 22.7592 11.92 22.7588 11.92 22.7583C11.92 22.7579 11.92 22.7575 11.92 22.7571C11.92 22.7567 11.92 22.7563 11.92 22.7559C11.92 22.7555 11.92 22.755 11.92 22.7546C11.92 22.7542 11.92 22.7538 11.92 22.7534C11.92 22.753 11.92 22.7526 11.92 22.7522C11.92 22.7517 11.92 22.7513 11.92 22.7509C11.92 22.7505 11.92 22.7501 11.92 22.7497C11.92 22.7493 11.92 22.7489 11.92 22.7484C11.92 22.748 11.92 22.7476 11.92 22.7472C11.92 22.7468 11.92 22.7464 11.92 22.746C11.92 22.7456 11.92 22.7451 11.92 22.7447C11.92 22.7443 11.92 22.7439 11.92 22.7435C11.92 22.7431 11.92 22.7427 11.92 22.7423C11.92 22.7418 11.92 22.7414 11.92 22.741C11.92 22.7406 11.92 22.7402 11.92 22.7398C11.92 22.7394 11.92 22.739 11.92 22.7385C11.92 22.7381 11.92 22.7377 11.92 22.7373C11.92 22.7369 11.92 22.7365 11.92 22.7361C11.92 22.7357 11.92 22.7352 11.92 22.7348C11.92 22.7344 11.92 22.734 11.92 22.7336C11.92 22.7332 11.92 22.7328 11.92 22.7324C11.92 22.7319 11.92 22.7315 11.92 22.7311C11.92 22.7307 11.92 22.7303 11.92 22.7299C11.92 22.7295 11.92 22.7291 11.92 22.7286C11.92 22.7282 11.92 22.7278 11.92 22.7274C11.92 22.727 11.92 22.7266 11.92 22.7262C11.92 22.7258 11.92 22.7253 11.92 22.7249C11.92 22.7245 11.92 22.7241 11.92 22.7237C11.92 22.7233 11.92 22.7229 11.92 22.7225C11.92 22.722 11.92 22.7216 11.92 22.7212C11.92 22.7208 11.92 22.7204 11.92 22.72C11.92 22.7196 11.92 22.7192 11.92 22.7187C11.92 22.7183 11.92 22.7179 11.92 22.7175C11.92 22.7171 11.92 22.7167 11.92 22.7163C11.92 22.7159 11.92 22.7154 11.92 22.715C11.92 22.7146 11.92 22.7142 11.92 22.7138C11.92 22.7134 11.92 22.713 11.92 22.7126C11.92 22.7121 11.92 22.7117 11.92 22.7113C11.92 22.7109 11.92 22.7105 11.92 22.7101C11.92 22.7097 11.92 22.7093 11.92 22.7088C11.92 22.7084 11.92 22.708 11.92 22.7076C11.92 22.7072 11.92 22.7068 11.92 22.7064C11.92 22.706 11.92 22.7055 11.92 22.7051C11.92 22.7047 11.92 22.7043 11.92 22.7039C11.92 22.7035 11.92 22.7031 11.92 22.7027C11.92 22.7022 11.92 22.7018 11.92 22.7014C11.92 22.701 11.92 22.7006 11.92 22.7002C11.92 22.6998 11.92 22.6994 11.92 22.6989C11.92 22.6985 11.92 22.6981 11.92 22.6977C11.92 22.6973 11.92 22.6969 11.92 22.6965C11.92 22.6961 11.92 22.6956 11.92 22.6952C11.92 22.6948 11.92 22.6944 11.92 22.694C11.92 22.6936 11.92 22.6932 11.92 22.6928C11.92 22.6923 11.92 22.6919 11.92 22.6915C11.92 22.6911 11.92 22.6907 11.92 22.6903C11.92 22.6899 11.92 22.6895 11.92 22.689C11.92 22.6886 11.92 22.6882 11.92 22.6878C11.92 22.6874 11.92 22.687 11.92 22.6866C11.92 22.6862 11.92 22.6857 11.92 22.6853C11.92 22.6849 11.92 22.6845 11.92 22.6841C11.92 22.6837 11.92 22.6833 11.92 22.6829C11.92 22.6824 11.92 22.682 11.92 22.6816C11.92 22.6812 11.92 22.6808 11.92 22.6804C11.92 22.68 11.92 22.6796 11.92 22.6791C11.92 22.6787 11.92 22.6783 11.92 22.6779C11.92 22.6775 11.92 22.6771 11.92 22.6767C11.92 22.6763 11.92 22.6758 11.92 22.6754C11.92 22.675 11.92 22.6746 11.92 22.6742C11.92 22.6738 11.92 22.6734 11.92 22.673C11.92 22.6725 11.92 22.6721 11.92 22.6717C11.92 22.6713 11.92 22.6709 11.92 22.6705C11.92 22.6701 11.92 22.6697 11.92 22.6692C11.92 22.6688 11.92 22.6684 11.92 22.668C11.92 22.6676 11.92 22.6672 11.92 22.6668C11.92 22.6664 11.92 22.6659 11.92 22.6655C11.92 22.6651 11.92 22.6647 11.92 22.6643C11.92 22.6639 11.92 22.6635 11.92 22.6631C11.92 22.6626 11.92 22.6622 11.92 22.6618C11.92 22.6614 11.92 22.661 11.92 22.6606C11.92 22.6602 11.92 22.6598 11.92 22.6593C11.92 22.6589 11.92 22.6585 11.92 22.6581C11.92 22.6577 11.92 22.6573 11.92 22.6569C11.92 22.6565 11.92 22.656 11.92 22.6556C11.92 22.6552 11.92 22.6548 11.92 22.6544C11.92 22.654 11.92 22.6536 11.92 22.6532C11.92 22.6527 11.92 22.6523 11.92 22.6519C11.92 22.6515 11.92 22.6511 11.92 22.6507C11.92 22.6503 11.92 22.6499 11.92 22.6494C11.92 22.649 11.92 22.6486 11.92 22.6482C11.92 22.6478 11.92 22.6474 11.92 22.647C11.92 22.6466 11.92 22.6461 11.92 22.6457C11.92 22.6453 11.92 22.6449 11.92 22.6445C11.92 22.6441 11.92 22.6437 11.92 22.6433C11.92 22.6428 11.92 22.6424 11.92 22.642C11.92 22.6416 11.92 22.6412 11.92 22.6408C11.92 22.6404 11.92 22.64 11.92 22.6395C11.92 22.6391 11.92 22.6387 11.92 22.6383C11.92 22.6379 11.92 22.6375 11.92 22.6371C11.92 22.6367 11.92 22.6362 11.92 22.6358C11.92 22.6354 11.92 22.635 11.92 22.6346C11.92 22.6342 11.92 22.6338 11.92 22.6334C11.92 22.6329 11.92 22.6325 11.92 22.6321C11.92 22.6317 11.92 22.6313 11.92 22.6309C11.92 22.6305 11.92 22.6301 11.92 22.6296C11.92 22.6292 11.92 22.6288 11.92 22.6284C11.92 22.628 11.92 22.6276 11.92 22.6272C11.92 22.6268 11.92 22.6263 11.92 22.6259C11.92 22.6255 11.92 22.6251 11.92 22.6247C11.92 22.6243 11.92 22.6239 11.92 22.6235C11.92 22.623 11.92 22.6226 11.92 22.6222C11.92 22.6218 11.92 22.6214 11.92 22.621C11.92 22.6206 11.92 22.6202 11.92 22.6197C11.92 22.6193 11.92 22.6189 11.92 22.6185C11.92 22.6181 11.92 22.6177 11.92 22.6173C11.92 22.6169 11.92 22.6164 11.92 22.616C11.92 22.6156 11.92 22.6152 11.92 22.6148C11.92 22.6144 11.92 22.614 11.92 22.6136C11.92 22.6131 11.92 22.6127 11.92 22.6123C11.92 22.6119 11.92 22.6115 11.92 22.6111C11.92 22.6107 11.92 22.6103 11.92 22.6098C11.92 22.6094 11.92 22.609 11.92 22.6086C11.92 22.6082 11.92 22.6078 11.92 22.6074C11.92 22.607 11.92 22.6065 11.92 22.6061C11.92 22.6057 11.92 22.6053 11.92 22.6049C11.92 22.6045 11.92 22.6041 11.92 22.6037C11.92 22.6032 11.92 22.6028 11.92 22.6024C11.92 22.602 11.92 22.6016 11.92 22.6012C11.92 22.6008 11.92 22.6004 11.92 22.5999C11.92 22.5995 11.92 22.5991 11.92 22.5987C11.92 22.5983 11.92 22.5979 11.92 22.5975C11.92 22.5971 11.92 22.5966 11.92 22.5962C11.92 22.5958 11.92 22.5954 11.92 22.595C11.92 22.5946 11.92 22.5942 11.92 22.5938C11.92 22.5933 11.92 22.5929 11.92 22.5925C11.92 22.5921 11.92 22.5917 11.92 22.5913C11.92 22.5909 11.92 22.5905 11.92 22.59C11.92 22.5896 11.92 22.5892 11.92 22.5888C11.92 22.5884 11.92 22.588 11.92 22.5876C11.92 22.5872 11.92 22.5867 11.92 22.5863C11.92 22.5859 11.92 22.5855 11.92 22.5851C11.92 22.5847 11.92 22.5843 11.92 22.5839C11.92 22.5834 11.92 22.583 11.92 22.5826C11.92 22.5822 11.92 22.5818 11.92 22.5814C11.92 22.581 11.92 22.5806 11.92 22.5801C11.92 22.5797 11.92 22.5793 11.92 22.5789C11.92 22.5785 11.92 22.5781 11.92 22.5777C11.92 22.5773 11.92 22.5768 11.92 22.5764C11.92 22.576 11.92 22.5756 11.92 22.5752C11.92 22.5748 11.92 22.5744 11.92 22.574C11.92 22.5735 11.92 22.5731 11.92 22.5727C11.92 22.5723 11.92 22.5719 11.92 22.5715C11.92 22.5711 11.92 22.5707 11.92 22.5702C11.92 22.5698 11.92 22.5694 11.92 22.569C11.92 22.5686 11.92 22.5682 11.92 22.5678C11.92 22.5674 11.92 22.5669 11.92 22.5665C11.92 22.5661 11.92 22.5657 11.92 22.5653C11.92 22.5649 11.92 22.5645 11.92 22.5641C11.92 22.5636 11.92 22.5632 11.92 22.5628C11.92 22.5624 11.92 22.562 11.92 22.5616C11.92 22.5612 11.92 22.5608 11.92 22.5603C11.92 22.5599 11.92 22.5595 11.92 22.5591C11.92 22.5587 11.92 22.5583 11.92 22.5579C11.92 22.5575 11.92 22.557 11.92 22.5566C11.92 22.5562 11.92 22.5558 11.92 22.5554C11.92 22.555 11.92 22.5546 11.92 22.5542C11.92 22.5537 11.92 22.5533 11.92 22.5529C11.92 22.5525 11.92 22.5521 11.92 22.5517C11.92 22.5513 11.92 22.5509 11.92 22.5504C11.92 22.55 11.92 22.5496 11.92 22.5492C11.92 22.5488 11.92 22.5484 11.92 22.548C11.92 22.5476 11.92 22.5471 11.92 22.5467C11.92 22.5463 11.92 22.5459 11.92 22.5455C11.92 22.5451 11.92 22.5447 11.92 22.5443C11.92 22.5438 11.92 22.5434 11.92 22.543C11.92 22.5426 11.92 22.5422 11.92 22.5418C11.92 22.5414 11.92 22.541 11.92 22.5405C11.92 22.5401 11.92 22.5397 11.92 22.5393C11.92 22.5389 11.92 22.5385 11.92 22.5381C11.92 22.5377 11.92 22.5372 11.92 22.5368C11.92 22.5364 11.92 22.536 11.92 22.5356C11.92 22.5352 11.92 22.5348 11.92 22.5344C11.92 22.5339 11.92 22.5335 11.92 22.5331C11.92 22.5327 11.92 22.5323 11.92 22.5319C11.92 22.5315 11.92 22.5311 11.92 22.5306C11.92 22.5302 11.92 22.5298 11.92 22.5294C11.92 22.529 11.92 22.5286 11.92 22.5282C11.92 22.5278 11.92 22.5273 11.92 22.5269C11.92 22.5265 11.92 22.5261 11.92 22.5257C11.92 22.5253 11.92 22.5249 11.92 22.5245C11.92 22.524 11.92 22.5236 11.92 22.5232C11.92 22.5228 11.92 22.5224 11.92 22.522C11.92 22.5216 11.92 22.5212 11.92 22.5207C11.92 22.5203 11.92 22.5199 11.92 22.5195C11.92 22.5191 11.92 22.5187 11.92 22.5183C11.92 22.5179 11.92 22.5174 11.92 22.517C11.92 22.5166 11.92 22.5162 11.92 22.5158C11.92 22.5154 11.92 22.515 11.92 22.5146C11.92 22.5141 11.92 22.5137 11.92 22.5133C11.92 22.5129 11.92 22.5125 11.92 22.5121C11.92 22.5117 11.92 22.5113 11.92 22.5108C11.92 22.5104 11.92 22.51 11.92 22.5096C11.92 22.5092 11.92 22.5088 11.92 22.5084C11.92 22.508 11.92 22.5075 11.92 22.5071C11.92 22.5067 11.92 22.5063 11.92 22.5059C11.92 22.5055 11.92 22.5051 11.92 22.5047C11.92 22.5042 11.92 22.5038 11.92 22.5034C11.92 22.503 11.92 22.5026 11.92 22.5022C11.92 22.5018 11.92 22.5014 11.92 22.5009C11.92 22.5005 11.92 22.5001 11.92 22.4997C11.92 22.4993 11.92 22.4989 11.92 22.4985C11.92 22.4981 11.92 22.4976 11.92 22.4972C11.92 22.4968 11.92 22.4964 11.92 22.496C11.92 22.4956 11.92 22.4952 11.92 22.4948C11.92 22.4943 11.92 22.4939 11.92 22.4935C11.92 22.4931 11.92 22.4927 11.92 22.4923C11.92 22.4919 11.92 22.4915 11.92 22.491C11.92 22.4906 11.92 22.4902 11.92 22.4898C11.92 22.4894 11.92 22.489 11.92 22.4886C11.92 22.4882 11.92 22.4877 11.92 22.4873C11.92 22.4869 11.92 22.4865 11.92 22.4861C11.92 22.4857 11.92 22.4853 11.92 22.4849C11.92 22.4844 11.92 22.484 11.92 22.4836C11.92 22.4832 11.92 22.4828 11.92 22.4824C11.92 22.482 11.92 22.4816 11.92 22.4811C11.92 22.4807 11.92 22.4803 11.92 22.4799C11.92 22.4795 11.92 22.4791 11.92 22.4787C11.92 22.4783 11.92 22.4778 11.92 22.4774C11.92 22.477 11.92 22.4766 11.92 22.4762C11.92 22.4758 11.92 22.4754 11.92 22.475C11.92 22.4745 11.92 22.4741 11.92 22.4737C11.92 22.4733 11.92 22.4729 11.92 22.4725C11.92 22.4721 11.92 22.4717 11.92 22.4712C11.92 22.4708 11.92 22.4704 11.92 22.47C11.92 22.4696 11.92 22.4692 11.92 22.4688C11.92 22.4684 11.92 22.4679 11.92 22.4675C11.92 22.4671 11.92 22.4667 11.92 22.4663C11.92 22.4659 11.92 22.4655 11.92 22.4651C11.92 22.4646 11.92 22.4642 11.92 22.4638C11.92 22.4634 11.92 22.463 11.92 22.4626C11.92 22.4622 11.92 22.4618 11.92 22.4613C11.92 22.4609 11.92 22.4605 11.92 22.4601C11.92 22.4597 11.92 22.4593 11.92 22.4589C11.92 22.4585 11.92 22.458 11.92 22.4576C11.92 22.4572 11.92 22.4568 11.92 22.4564C11.92 22.456 11.92 22.4556 11.92 22.4552C11.92 22.4547 11.92 22.4543 11.92 22.4539C11.92 22.4535 11.92 22.4531 11.92 22.4527C11.92 22.4523 11.92 22.4519 11.92 22.4514C11.92 22.451 11.92 22.4506 11.92 22.4502C11.92 22.4498 11.92 22.4494 11.92 22.449C11.92 22.4486 11.92 22.4481 11.92 22.4477C11.92 22.4473 11.92 22.4469 11.92 22.4465C11.92 22.4461 11.92 22.4457 11.92 22.4453C11.92 22.4448 11.92 22.4444 11.92 22.444C11.92 22.4436 11.92 22.4432 11.92 22.4428C11.92 22.4424 11.92 22.442 11.92 22.4415C11.92 22.4411 11.92 22.4407 11.92 22.4403C11.92 22.4399 11.92 22.4395 11.92 22.4391C11.92 22.4387 11.92 22.4382 11.92 22.4378C11.92 22.4374 11.92 22.437 11.92 22.4366C11.92 22.4362 11.92 22.4358 11.92 22.4354C11.92 22.4349 11.92 22.4345 11.92 22.4341C11.92 22.4337 11.92 22.4333 11.92 22.4329C11.92 22.4325 11.92 22.4321 11.92 22.4316C11.92 22.4312 11.92 22.4308 11.92 22.4304C11.92 22.43 11.92 22.4296 11.92 22.4292C11.92 22.4288 11.92 22.4283 11.92 22.4279C11.92 22.4275 11.92 22.4271 11.92 22.4267C11.92 22.4263 11.92 22.4259 11.92 22.4255C11.92 22.425 11.92 22.4246 11.92 22.4242C11.92 22.4238 11.92 22.4234 11.92 22.423C11.92 22.4226 11.92 22.4222 11.92 22.4217C11.92 22.4213 11.92 22.4209 11.92 22.4205C11.92 22.4201 11.92 22.4197 11.92 22.4193C11.92 22.4189 11.92 22.4184 11.92 22.418C11.92 22.4176 11.92 22.4172 11.92 22.4168C11.92 22.4164 11.92 22.416 11.92 22.4156C11.92 22.4151 11.92 22.4147 11.92 22.4143C11.92 22.4139 11.92 22.4135 11.92 22.4131C11.92 22.4127 11.92 22.4123 11.92 22.4118C11.92 22.4114 11.92 22.411 11.92 22.4106C11.92 22.4102 11.92 22.4098 11.92 22.4094C11.92 22.409 11.92 22.4085 11.92 22.4081C11.92 22.4077 11.92 22.4073 11.92 22.4069C11.92 22.4065 11.92 22.4061 11.92 22.4057C11.92 22.4052 11.92 22.4048 11.92 22.4044C11.92 22.404 11.92 22.4036 11.92 22.4032C11.92 22.4028 11.92 22.4024 11.92 22.4019C11.92 22.4015 11.92 22.4011 11.92 22.4007C11.92 22.4003 11.92 22.3999 11.92 22.3995C11.92 22.3991 11.92 22.3986 11.92 22.3982C11.92 22.3978 11.92 22.3974 11.92 22.397C11.92 22.3966 11.92 22.3962 11.92 22.3958C11.92 22.3953 11.92 22.3949 11.92 22.3945C11.92 22.3941 11.92 22.3937 11.92 22.3933C11.92 22.3929 11.92 22.3925 11.92 22.392C11.92 22.3916 11.92 22.3912 11.92 22.3908C11.92 22.3904 11.92 22.39 11.92 22.3896C11.92 22.3892 11.92 22.3887 11.92 22.3883C11.92 22.3879 11.92 22.3875 11.92 22.3871C11.92 22.3867 11.92 22.3863 11.92 22.3859C11.92 22.3854 11.92 22.385 11.92 22.3846C11.92 22.3842 11.92 22.3838 11.92 22.3834C11.92 22.383 11.92 22.3826 11.92 22.3821C11.92 22.3817 11.92 22.3813 11.92 22.3809C11.92 22.3805 11.92 22.3801 11.92 22.3797C11.92 22.3793 11.92 22.3788 11.92 22.3784C11.92 22.378 11.92 22.3776 11.92 22.3772H10.82ZM10.82 23.0108C10.82 23.6987 10.9204 24.3841 11.1192 25.0656L12.1752 24.7576C12.0044 24.1719 11.92 23.5901 11.92 23.0108H10.82ZM11.121 25.0717C11.3214 25.7301 11.6091 26.3356 11.9853 26.8854L12.8931 26.2642C12.5829 25.8108 12.3426 25.3075 12.1734 24.7515L11.121 25.0717ZM12.005 26.9125C12.4214 27.4478 12.9394 27.8901 13.5523 28.2403L14.0981 27.2853C13.6022 27.0019 13.1962 26.6522 12.8733 26.2371L12.005 26.9125ZM13.57 28.25C14.2188 28.5899 14.9703 28.7484 15.8052 28.7484V27.6484C15.1089 27.6484 14.5404 27.5165 14.0804 27.2756L13.57 28.25ZM15.8052 28.7484C17.1859 28.7484 18.3426 28.2713 19.2223 27.3005L18.4072 26.5619C17.7558 27.2807 16.9061 27.6484 15.8052 27.6484V28.7484ZM19.216 27.3074C20.1171 26.3462 20.5528 25.1227 20.5528 23.684H19.4528C19.4528 24.8853 19.0965 25.8266 18.4135 26.555L19.216 27.3074Z" fill="#FFA300" mask="url(#path-2-outside-1_84_428)"/>
</svg>
