<svg width="32" height="40" viewBox="0 0 32 40" fill="none" xmlns="http://www.w3.org/2000/svg">
<rect y="7.69995" width="31.9" height="31.9" rx="4.4" fill="#EBEAEA"/>
<mask id="path-2-outside-1_84_425" maskUnits="userSpaceOnUse" x="6.40039" y="3" width="18" height="31" fill="black">
<rect fill="white" x="6.40039" y="3" width="18" height="31"/>
<path d="M13.1124 28.0004C14.8548 28.0004 16.188 27.578 17.112 26.7332C18.036 25.8884 18.498 24.7268 18.498 23.2484C18.498 21.6644 17.9568 20.5028 16.8744 19.7636C15.792 19.0244 14.2476 18.6548 12.2412 18.6548L9.11279 18.7736V4.28H22.7352V9.1112H13.548V14.4572L15.1716 14.2988C16.4652 14.3516 17.6268 14.5892 18.6564 15.0116C19.7124 15.434 20.61 16.028 21.3492 16.7936C22.0884 17.5328 22.656 18.4436 23.052 19.526C23.448 20.582 23.646 21.77 23.646 23.09C23.646 24.6476 23.382 26.0204 22.854 27.2084C22.326 28.3964 21.5868 29.3864 20.6364 30.1784C19.7124 30.9704 18.6168 31.5644 17.3496 31.9604C16.0824 32.3564 14.6964 32.5544 13.1916 32.5544C12.0036 32.5544 10.8684 32.4488 9.78599 32.2376C8.72999 32.0528 7.83239 31.7888 7.09319 31.4456L8.47919 27.1688C9.08639 27.4328 9.74639 27.644 10.4592 27.8024C11.1984 27.9344 12.0828 28.0004 13.1124 28.0004Z"/>
</mask>
<path d="M13.1124 28.0004C14.8548 28.0004 16.188 27.578 17.112 26.7332C18.036 25.8884 18.498 24.7268 18.498 23.2484C18.498 21.6644 17.9568 20.5028 16.8744 19.7636C15.792 19.0244 14.2476 18.6548 12.2412 18.6548L9.11279 18.7736V4.28H22.7352V9.1112H13.548V14.4572L15.1716 14.2988C16.4652 14.3516 17.6268 14.5892 18.6564 15.0116C19.7124 15.434 20.61 16.028 21.3492 16.7936C22.0884 17.5328 22.656 18.4436 23.052 19.526C23.448 20.582 23.646 21.77 23.646 23.09C23.646 24.6476 23.382 26.0204 22.854 27.2084C22.326 28.3964 21.5868 29.3864 20.6364 30.1784C19.7124 30.9704 18.6168 31.5644 17.3496 31.9604C16.0824 32.3564 14.6964 32.5544 13.1916 32.5544C12.0036 32.5544 10.8684 32.4488 9.78599 32.2376C8.72999 32.0528 7.83239 31.7888 7.09319 31.4456L8.47919 27.1688C9.08639 27.4328 9.74639 27.644 10.4592 27.8024C11.1984 27.9344 12.0828 28.0004 13.1124 28.0004Z" fill="#FFA300"/>
<path d="M17.112 26.7332L17.4831 27.1391L17.112 26.7332ZM16.8744 19.7636L17.1846 19.3094L16.8744 19.7636ZM12.2412 18.6548V18.1048H12.2308L12.2203 18.1052L12.2412 18.6548ZM9.11279 18.7736H8.56279V19.3449L9.13366 19.3232L9.11279 18.7736ZM9.11279 4.28V3.73H8.56279V4.28H9.11279ZM22.7352 4.28H23.2852V3.73H22.7352V4.28ZM22.7352 9.1112V9.6612H23.2852V9.1112H22.7352ZM13.548 9.1112V8.5612H12.998V9.1112H13.548ZM13.548 14.4572H12.998V15.0635L13.6014 15.0046L13.548 14.4572ZM15.1716 14.2988L15.194 13.7493L15.156 13.7477L15.1182 13.7514L15.1716 14.2988ZM18.6564 15.0116L18.4476 15.5205L18.4521 15.5223L18.6564 15.0116ZM21.3492 16.7936L20.9535 17.1757L20.9603 17.1825L21.3492 16.7936ZM23.052 19.526L22.5355 19.715L22.537 19.7191L23.052 19.526ZM20.6364 30.1784L20.2843 29.7558L20.2785 29.7608L20.6364 30.1784ZM17.3496 31.9604L17.5136 32.4854L17.3496 31.9604ZM9.78599 32.2376L9.89134 31.6977L9.8808 31.6958L9.78599 32.2376ZM7.09319 31.4456L6.56998 31.276L6.41983 31.7394L6.86158 31.9445L7.09319 31.4456ZM8.47919 27.1688L8.69849 26.6644L8.14279 26.4228L7.95598 26.9992L8.47919 27.1688ZM10.4592 27.8024L10.3399 28.3393L10.3511 28.3418L10.3625 28.3438L10.4592 27.8024ZM13.1124 28.5504C14.9381 28.5504 16.4239 28.1075 17.4831 27.1391L16.7409 26.3273C15.9521 27.0485 14.7714 27.4504 13.1124 27.4504V28.5504ZM17.4831 27.1391C18.5418 26.1712 19.048 24.8507 19.048 23.2484H17.948C17.948 24.6029 17.5302 25.6056 16.7409 26.3273L17.4831 27.1391ZM19.048 23.2484C19.048 21.5259 18.4495 20.1733 17.1846 19.3094L16.5642 20.2178C17.4641 20.8323 17.948 21.8029 17.948 23.2484H19.048ZM17.1846 19.3094C15.9741 18.4827 14.3035 18.1048 12.2412 18.1048V19.2048C14.1917 19.2048 15.6099 19.5661 16.5642 20.2178L17.1846 19.3094ZM12.2203 18.1052L9.09192 18.224L9.13366 19.3232L12.2621 19.2044L12.2203 18.1052ZM9.66279 18.7736V4.28H8.56279V18.7736H9.66279ZM9.11279 4.83H22.7352V3.73H9.11279V4.83ZM22.1852 4.28V9.1112H23.2852V4.28H22.1852ZM22.7352 8.5612H13.548V9.6612H22.7352V8.5612ZM12.998 9.1112V14.4572H14.098V9.1112H12.998ZM13.6014 15.0046L15.225 14.8462L15.1182 13.7514L13.4946 13.9098L13.6014 15.0046ZM15.1492 14.8483C16.389 14.8989 17.4861 15.126 18.4476 15.5204L18.8651 14.5028C17.7675 14.0524 16.5414 13.8042 15.194 13.7493L15.1492 14.8483ZM18.4521 15.5223C19.441 15.9178 20.272 16.4697 20.9535 17.1756L21.7449 16.4116C20.948 15.5863 19.9838 14.9502 18.8607 14.5009L18.4521 15.5223ZM20.9603 17.1825C21.6373 17.8596 22.1641 18.6999 22.5355 19.715L23.5685 19.337C23.1479 18.1873 22.5395 17.206 21.7381 16.4047L20.9603 17.1825ZM22.537 19.7191C22.9063 20.7038 23.096 21.8249 23.096 23.09H24.196C24.196 21.7151 23.9897 20.4602 23.567 19.3329L22.537 19.7191ZM23.096 23.09C23.096 24.5856 22.8426 25.8799 22.3514 26.985L23.3566 27.4318C23.9214 26.1609 24.196 24.7096 24.196 23.09H23.096ZM22.3514 26.985C21.8558 28.1 21.1666 29.0206 20.2843 29.7559L20.9885 30.6009C22.007 29.7522 22.7961 28.6928 23.3566 27.4318L22.3514 26.985ZM20.2785 29.7608C19.4161 30.5 18.388 31.0597 17.1855 31.4354L17.5136 32.4854C18.8456 32.0691 20.0087 31.4408 20.9943 30.596L20.2785 29.7608ZM17.1855 31.4354C15.978 31.8128 14.6481 32.0044 13.1916 32.0044V33.1044C14.7447 33.1044 16.1868 32.9 17.5136 32.4854L17.1855 31.4354ZM13.1916 32.0044C12.0363 32.0044 10.9365 31.9017 9.89132 31.6978L9.68066 32.7774C10.8003 32.9959 11.9709 33.1044 13.1916 33.1044V32.0044ZM9.8808 31.6958C8.85814 31.5169 8.00928 31.2645 7.3248 30.9467L6.86158 31.9445C7.65551 32.3131 8.60184 32.5887 9.69118 32.7794L9.8808 31.6958ZM7.6164 31.6152L9.0024 27.3384L7.95598 26.9992L6.56998 31.276L7.6164 31.6152ZM8.25989 27.6732C8.9024 27.9525 9.59625 28.1741 10.3399 28.3393L10.5785 27.2655C9.89653 27.1139 9.27038 26.9131 8.69849 26.6644L8.25989 27.6732ZM10.3625 28.3438C11.1429 28.4832 12.0614 28.5504 13.1124 28.5504V27.4504C12.1042 27.4504 11.2539 27.3856 10.5559 27.261L10.3625 28.3438Z" fill="#FFA300" mask="url(#path-2-outside-1_84_425)"/>
</svg>
